<?xml version="1.0" encoding="UTF-8" standalone="no"?>
<!DOCTYPE svg PUBLIC "-//W3C//DTD SVG 1.1//EN"
 "http://www.w3.org/Graphics/SVG/1.1/DTD/svg11.dtd">
<!-- Generated by graphviz version 2.40.1 (20161225.0304)
 -->
<!-- Title: FutureStates Pages: 1 -->
<svg width="456pt" height="305pt"
 viewBox="0.00 0.00 455.79 305.00" xmlns="http://www.w3.org/2000/svg" xmlns:xlink="http://www.w3.org/1999/xlink">
<g id="graph0" class="graph" transform="scale(1 1) rotate(0) translate(4 301)">
<title>FutureStates</title>
<polygon fill="#ffffff" stroke="transparent" points="-4,4 -4,-301 451.7901,-301 451.7901,4 -4,4"/>
<!-- WAITING -->
<g id="node1" class="node">
<title>WAITING</title>
<ellipse fill="none" stroke="#000000" cx="264.8962" cy="-279" rx="50.8918" ry="18"/>
<text text-anchor="middle" x="264.8962" y="-275.3" font-family="Times,serif" font-size="14.00" fill="#000000">WAITING</text>
</g>
<!-- EXECUTING -->
<g id="node2" class="node">
<title>EXECUTING</title>
<ellipse fill="none" stroke="#000000" cx="204.8962" cy="-192" rx="63.0888" ry="18"/>
<text text-anchor="middle" x="204.8962" y="-188.3" font-family="Times,serif" font-size="14.00" fill="#000000">EXECUTING</text>
</g>
<!-- WAITING&#45;&gt;EXECUTING -->
<g id="edge1" class="edge">
<title>WAITING&#45;&gt;EXECUTING</title>
<path fill="none" stroke="#000000" d="M252.7543,-261.3943C244.1905,-248.9767 232.5741,-232.1329 222.9305,-218.1498"/>
<polygon fill="#000000" stroke="#000000" points="225.7846,-216.1232 217.226,-209.8782 220.0221,-220.0974 225.7846,-216.1232"/>
<text text-anchor="middle" x="256.8962" y="-231.8" font-family="Times,serif" font-size="14.00" fill="#000000">started</text>
</g>
<!-- CANCELLING -->
<g id="node3" class="node">
<title>CANCELLING</title>
<ellipse fill="none" stroke="#000000" cx="322.8962" cy="-105" rx="68.7879" ry="18"/>
<text text-anchor="middle" x="322.8962" y="-101.3" font-family="Times,serif" font-size="14.00" fill="#000000">CANCELLING</text>
</g>
<!-- WAITING&#45;&gt;CANCELLING -->
<g id="edge2" class="edge">
<title>WAITING&#45;&gt;CANCELLING</title>
<path fill="none" stroke="#000000" d="M272.7037,-261.1835C275.1236,-255.4249 277.7232,-248.9821 279.8962,-243 293.5711,-205.3536 306.909,-161.007 315.0145,-132.9488"/>
<polygon fill="#000000" stroke="#000000" points="318.4636,-133.6181 317.8546,-123.0407 311.7346,-131.6892 318.4636,-133.6181"/>
<text text-anchor="middle" x="319.8962" y="-188.3" font-family="Times,serif" font-size="14.00" fill="#000000">cancel</text>
</g>
<!-- EXECUTING&#45;&gt;CANCELLING -->
<g id="edge6" class="edge">
<title>EXECUTING&#45;&gt;CANCELLING</title>
<path fill="none" stroke="#000000" d="M223.7564,-174.707C235.2873,-164.4585 250.5354,-151.4706 264.8962,-141 271.4275,-136.238 278.5955,-131.4581 285.5973,-127.0079"/>
<polygon fill="#000000" stroke="#000000" points="287.6815,-129.833 294.317,-121.5734 283.979,-123.8924 287.6815,-129.833"/>
<text text-anchor="middle" x="282.8962" y="-144.8" font-family="Times,serif" font-size="14.00" fill="#000000">cancel</text>
</g>
<!-- FAILED -->
<g id="node4" class="node">
<title>FAILED</title>
<ellipse fill="none" stroke="#000000" cx="42.8962" cy="-105" rx="42.7926" ry="18"/>
<text text-anchor="middle" x="42.8962" y="-101.3" font-family="Times,serif" font-size="14.00" fill="#000000">FAILED</text>
</g>
<!-- EXECUTING&#45;&gt;FAILED -->
<g id="edge4" class="edge">
<title>EXECUTING&#45;&gt;FAILED</title>
<path fill="none" stroke="#000000" d="M175.1829,-176.0429C147.9007,-161.3913 107.4317,-139.658 78.4451,-124.0911"/>
<polygon fill="#000000" stroke="#000000" points="79.9345,-120.9182 69.4686,-119.2704 76.6226,-127.0852 79.9345,-120.9182"/>
<text text-anchor="middle" x="149.8962" y="-144.8" font-family="Times,serif" font-size="14.00" fill="#000000">raised</text>
</g>
<!-- COMPLETED -->
<g id="node5" class="node">
<title>COMPLETED</title>
<ellipse fill="none" stroke="#000000" cx="169.8962" cy="-105" rx="65.7887" ry="18"/>
<text text-anchor="middle" x="169.8962" y="-101.3" font-family="Times,serif" font-size="14.00" fill="#000000">COMPLETED</text>
</g>
<!-- EXECUTING&#45;&gt;COMPLETED -->
<g id="edge5" class="edge">
<title>EXECUTING&#45;&gt;COMPLETED</title>
<path fill="none" stroke="#000000" d="M195.2284,-173.919C192.373,-168.2592 189.3563,-161.9393 186.8962,-156 183.8168,-148.5656 180.8833,-140.3541 178.3468,-132.7321"/>
<polygon fill="#000000" stroke="#000000" points="181.6625,-131.6099 175.262,-123.1668 175.0003,-133.7584 181.6625,-131.6099"/>
<text text-anchor="middle" x="210.3962" y="-144.8" font-family="Times,serif" font-size="14.00" fill="#000000">returned</text>
</g>
<!-- CANCELLING&#45;&gt;CANCELLING -->
<g id="edge3" class="edge">
<title>CANCELLING&#45;&gt;CANCELLING</title>
<path fill="none" stroke="#000000" d="M385.384,-112.6827C399.4799,-111.9906 409.7901,-109.4297 409.7901,-105 409.7901,-101.7123 404.1108,-99.4541 395.4196,-98.2252"/>
<polygon fill="#000000" stroke="#000000" points="395.6587,-94.7326 385.384,-97.3173 395.0279,-101.7042 395.6587,-94.7326"/>
<text text-anchor="middle" x="428.7901" y="-101.3" font-family="Times,serif" font-size="14.00" fill="#000000">started</text>
</g>
<!-- CANCELLED -->
<g id="node6" class="node">
<title>CANCELLED</title>
<ellipse fill="none" stroke="#000000" cx="321.8962" cy="-18" rx="64.9885" ry="18"/>
<text text-anchor="middle" x="321.8962" y="-14.3" font-family="Times,serif" font-size="14.00" fill="#000000">CANCELLED</text>
</g>
<!-- CANCELLING&#45;&gt;CANCELLED -->
<g id="edge7" class="edge">
<title>CANCELLING&#45;&gt;CANCELLED</title>
<path fill="none" stroke="#000000" d="M305.4689,-87.3522C301.1727,-81.9041 297.1575,-75.5906 294.8962,-69 292.0452,-60.6906 294.3151,-52.09 298.5323,-44.3725"/>
<polygon fill="#000000" stroke="#000000" points="301.6084,-46.0652 304.1872,-35.789 295.7629,-42.2141 301.6084,-46.0652"/>
<text text-anchor="middle" x="311.8962" y="-57.8" font-family="Times,serif" font-size="14.00" fill="#000000">raised</text>
</g>
<!-- CANCELLING&#45;&gt;CANCELLED -->
<g id="edge8" class="edge">
<title>CANCELLING&#45;&gt;CANCELLED</title>
<path fill="none" stroke="#000000" d="M326.9641,-86.6073C328.6252,-76.9167 329.939,-64.8265 328.8962,-54 328.6505,-51.4491 328.309,-48.8104 327.9079,-46.1745"/>
<polygon fill="#000000" stroke="#000000" points="331.3342,-45.4503 326.1424,-36.2148 324.4417,-46.6722 331.3342,-45.4503"/>
<text text-anchor="middle" x="352.3962" y="-57.8" font-family="Times,serif" font-size="14.00" fill="#000000">returned</text>
</g>
</g>
</svg>
