<?xml version="1.0" encoding="UTF-8" standalone="no"?>
<!DOCTYPE svg PUBLIC "-//W3C//DTD SVG 1.1//EN"
 "http://www.w3.org/Graphics/SVG/1.1/DTD/svg11.dtd">
<!-- Generated by graphviz version 2.50.0 (20211204.2007)
 -->
<!-- Title: FutureStates Pages: 1 -->
<svg width="445pt" height="305pt"
 viewBox="0.00 0.00 445.19 305.00" xmlns="http://www.w3.org/2000/svg" xmlns:xlink="http://www.w3.org/1999/xlink">
<g id="graph0" class="graph" transform="scale(1 1) rotate(0) translate(4 301)">
<title>FutureStates</title>
<polygon fill="white" stroke="transparent" points="-4,4 -4,-301 441.19,-301 441.19,4 -4,4"/>
<!-- WAITING -->
<g id="node1" class="node">
<title>WAITING</title>
<ellipse fill="none" stroke="black" cx="259.25" cy="-279" rx="48.99" ry="18"/>
<text text-anchor="middle" x="259.25" y="-275.3" font-family="Times,serif" font-size="14.00">WAITING</text>
</g>
<!-- EXECUTING -->
<g id="node2" class="node">
<title>EXECUTING</title>
<ellipse fill="none" stroke="black" cx="199.25" cy="-192" rx="61.19" ry="18"/>
<text text-anchor="middle" x="199.25" y="-188.3" font-family="Times,serif" font-size="14.00">EXECUTING</text>
</g>
<!-- WAITING&#45;&gt;EXECUTING -->
<g id="edge1" class="edge">
<title>WAITING&#45;&gt;EXECUTING</title>
<path fill="none" stroke="black" d="M247.39,-261.21C238.68,-248.87 226.7,-231.89 216.87,-217.97"/>
<polygon fill="black" stroke="black" points="219.7,-215.91 211.08,-209.76 213.98,-219.95 219.7,-215.91"/>
<text text-anchor="middle" x="250.75" y="-231.8" font-family="Times,serif" font-size="14.00">started</text>
</g>
<!-- CANCELLING -->
<g id="node3" class="node">
<title>CANCELLING</title>
<ellipse fill="none" stroke="black" cx="315.25" cy="-105" rx="66.89" ry="18"/>
<text text-anchor="middle" x="315.25" y="-101.3" font-family="Times,serif" font-size="14.00">CANCELLING</text>
</g>
<!-- WAITING&#45;&gt;CANCELLING -->
<g id="edge2" class="edge">
<title>WAITING&#45;&gt;CANCELLING</title>
<path fill="none" stroke="black" d="M266.37,-261.02C268.67,-255.33 271.16,-248.93 273.25,-243 286.6,-205.14 299.81,-160.57 307.75,-132.79"/>
<polygon fill="black" stroke="black" points="311.16,-133.6 310.52,-123.02 304.42,-131.68 311.16,-133.6"/>
<text text-anchor="middle" x="312.75" y="-188.3" font-family="Times,serif" font-size="14.00">cancel</text>
</g>
<!-- EXECUTING&#45;&gt;CANCELLING -->
<g id="edge6" class="edge">
<title>EXECUTING&#45;&gt;CANCELLING</title>
<path fill="none" stroke="black" d="M217,-174.72C228.42,-164.56 243.78,-151.47 258.25,-141 264.86,-136.21 272.14,-131.41 279.22,-126.97"/>
<polygon fill="black" stroke="black" points="281.33,-129.78 288.02,-121.56 277.67,-123.82 281.33,-129.78"/>
<text text-anchor="middle" x="275.75" y="-144.8" font-family="Times,serif" font-size="14.00">cancel</text>
</g>
<!-- FAILED -->
<g id="node4" class="node">
<title>FAILED</title>
<ellipse fill="none" stroke="black" cx="42.25" cy="-105" rx="42.49" ry="18"/>
<text text-anchor="middle" x="42.25" y="-101.3" font-family="Times,serif" font-size="14.00">FAILED</text>
</g>
<!-- EXECUTING&#45;&gt;FAILED -->
<g id="edge4" class="edge">
<title>EXECUTING&#45;&gt;FAILED</title>
<path fill="none" stroke="black" d="M171.18,-175.8C144.63,-161.43 104.74,-139.84 76.37,-124.47"/>
<polygon fill="black" stroke="black" points="77.69,-121.21 67.23,-119.52 74.35,-127.36 77.69,-121.21"/>
<text text-anchor="middle" x="145.75" y="-144.8" font-family="Times,serif" font-size="14.00">raised</text>
</g>
<!-- COMPLETED -->
<g id="node5" class="node">
<title>COMPLETED</title>
<ellipse fill="none" stroke="black" cx="166.25" cy="-105" rx="63.89" ry="18"/>
<text text-anchor="middle" x="166.25" y="-101.3" font-family="Times,serif" font-size="14.00">COMPLETED</text>
</g>
<!-- EXECUTING&#45;&gt;COMPLETED -->
<g id="edge5" class="edge">
<title>EXECUTING&#45;&gt;COMPLETED</title>
<path fill="none" stroke="black" d="M190.45,-174.13C187.65,-168.45 184.66,-162.02 182.25,-156 179.31,-148.67 176.53,-140.58 174.14,-133.07"/>
<polygon fill="black" stroke="black" points="177.42,-131.86 171.13,-123.34 170.74,-133.93 177.42,-131.86"/>
<text text-anchor="middle" x="205.25" y="-144.8" font-family="Times,serif" font-size="14.00">returned</text>
</g>
<!-- CANCELLING&#45;&gt;CANCELLING -->
<g id="edge3" class="edge">
<title>CANCELLING&#45;&gt;CANCELLING</title>
<path fill="none" stroke="black" d="M375.95,-112.7C389.92,-112.04 400.19,-109.47 400.19,-105 400.19,-101.72 394.65,-99.46 386.18,-98.23"/>
<polygon fill="black" stroke="black" points="386.22,-94.72 375.95,-97.3 385.59,-101.69 386.22,-94.72"/>
<text text-anchor="middle" x="418.69" y="-101.3" font-family="Times,serif" font-size="14.00">started</text>
</g>
<!-- CANCELLED -->
<g id="node6" class="node">
<title>CANCELLED</title>
<ellipse fill="none" stroke="black" cx="315.25" cy="-18" rx="63.09" ry="18"/>
<text text-anchor="middle" x="315.25" y="-14.3" font-family="Times,serif" font-size="14.00">CANCELLED</text>
</g>
<!-- CANCELLING&#45;&gt;CANCELLED -->
<g id="edge7" class="edge">
<title>CANCELLING&#45;&gt;CANCELLED</title>
<path fill="none" stroke="black" d="M298.72,-87.18C294.47,-81.8 290.47,-75.54 288.25,-69 285.33,-60.45 287.96,-51.62 292.53,-43.81"/>
<polygon fill="black" stroke="black" points="295.48,-45.69 298.33,-35.48 289.74,-41.69 295.48,-45.69"/>
<text text-anchor="middle" x="304.75" y="-57.8" font-family="Times,serif" font-size="14.00">raised</text>
</g>
<!-- CANCELLING&#45;&gt;CANCELLED -->
<g id="edge8" class="edge">
<title>CANCELLING&#45;&gt;CANCELLED</title>
<path fill="none" stroke="black" d="M318.76,-86.98C319.78,-81.29 320.74,-74.9 321.25,-69 321.88,-61.54 321.42,-53.47 320.52,-46.05"/>
<polygon fill="black" stroke="black" points="323.98,-45.47 319.04,-36.09 317.05,-46.5 323.98,-45.47"/>
<text text-anchor="middle" x="344.25" y="-57.8" font-family="Times,serif" font-size="14.00">returned</text>
</g>
</g>
</svg>
